<svg xmlns="http://www.w3.org/2000/svg" width="651" height="590"><g fill="none" fill-rule="evenodd" transform="translate(.87 .93)"><circle cx="321.629" cy="131.57" r="12.5" fill="#5931FE"/><circle cx="347.255" cy="575.828" r="12.5" fill="#5931FE" transform="rotate(178 347.255 575.828)"/><circle cx="17.409" cy="140.359" r="12.5" fill="#5931FE" transform="rotate(-55 17.41 140.36)"/><circle cx="631.983" cy="437.427" r="12.5" fill="#5931FE" transform="rotate(123 631.983 437.427)"/><circle cx="371.129" cy="288.07" r="16" fill="#333F72"/><circle cx="292.323" cy="421.151" r="16" fill="#333F72" transform="rotate(178 292.324 421.15)"/><circle cx="173.998" cy="189.576" r="16" fill="#333F72" transform="rotate(-55 173.998 189.576)"/><circle cx="473.772" cy="393.705" r="16" fill="#333F72" transform="rotate(123 473.772 393.705)"/><circle cx="496.629" cy="266.57" r="12.5" fill="#35FEAF"/><circle cx="228.371" cy="74.44" r="12.5" fill="#35FEAF" transform="rotate(-55 228.37 74.44)"/><circle cx="423.451" cy="510.668" r="12.5" fill="#35FEAF" transform="rotate(123 423.45 510.668)"/><circle cx="490.629" cy="158.57" r="12.5" fill="#FFF"/><circle cx="262.629" cy="318.57" r="12.5" fill="#FFF"/><circle cx="177.416" cy="554.743" r="12.5" fill="#FFF" transform="rotate(178 177.416 554.743)"/><circle cx="136.461" cy="17.409" r="12.5" fill="#FFF" transform="rotate(-55 136.46 17.41)"/><circle cx="517.295" cy="564.457" r="12.5" fill="#FFF" transform="rotate(123 517.295 564.457)"/><circle cx="396.629" cy="188.57" r="20.5" fill="#F34C1A"/><circle cx="270.311" cy="521.48" r="20.5" fill="#F34C1A" transform="rotate(178 270.312 521.48)"/><circle cx="107.119" cy="111.617" r="20.5" fill="#F34C1A" transform="rotate(-55 107.119 111.617)"/><circle cx="543.331" cy="469.282" r="20.5" fill="#F34C1A" transform="rotate(123 543.331 469.283)"/></g></svg>