<svg width="93" height="74" viewBox="0 0 93 74" fill="none" xmlns="http://www.w3.org/2000/svg">
<path fill-rule="evenodd" clip-rule="evenodd" d="M25.575 73.6188C11.4502 73.6188 0 62.2302 0 48.1813V0H9.3V48.1813C9.3 57.1214 16.5866 64.3688 25.575 64.3688C34.676 64.3688 41.85 57.3925 41.85 48.5624H51.15V62.4374C51.15 63.7146 52.1909 64.7499 53.475 64.7499C54.7591 64.7499 55.8 63.7146 55.8 62.4374V46.0187C52.3793 46.7132 48.8259 45.8418 46.1218 43.6453C43.4177 41.4489 41.8493 38.1599 41.85 34.6875V11.5625C41.85 5.1767 47.0547 0 53.475 0C59.8953 0 65.1 5.1767 65.1 11.5625V62.4374C65.1 63.7146 66.1409 64.7499 67.425 64.7499C68.7091 64.7499 69.75 63.7146 69.75 62.4374V11.5625C69.75 5.1767 74.9547 0 81.375 0C87.7953 0 93 5.1767 93 11.5625V62.4374C93 66.817 90.5122 70.8206 86.5739 72.7792C82.6355 74.7378 77.9226 74.3151 74.4 71.6874C72.3895 73.1919 69.9409 74.0037 67.425 73.9999C64.9091 74.0037 62.4605 73.1919 60.45 71.6874C57.6157 73.8015 53.9669 74.5149 50.5389 73.6252C47.1108 72.7356 44.2777 70.3399 42.8432 67.1179C38.2751 71.1824 32.1985 73.6188 25.575 73.6188V73.6188ZM81.375 64.7499C80.0916 64.7499 79.05 63.7139 79.05 62.4374V11.5625C79.05 10.2853 80.0909 9.24999 81.375 9.24999C82.6591 9.24999 83.7 10.2853 83.7 11.5625V62.4374C83.7 63.7139 82.6584 64.7499 81.375 64.7499ZM55.8 34.6875C55.8 35.9646 54.7591 37 53.475 37C52.1909 37 51.15 35.9646 51.15 34.6875V11.5625C51.15 10.2853 52.1909 9.24999 53.475 9.24999C54.7591 9.24999 55.8 10.2853 55.8 11.5625V34.6875Z" fill="#fff"/>
<path fill-rule="evenodd" clip-rule="evenodd" d="M14 48.4615C14 54.8341 19.1487 60 25.5 60C31.8513 60 37 54.8341 37 48.4615V11.5385C37 5.16595 31.8513 0 25.5 0C19.1487 0 14 5.16595 14 11.5385V48.4615V48.4615ZM25.5 50.7692C24.2304 50.7692 23.2 49.7354 23.2 48.4615V11.5385C23.2 10.264 24.2297 9.23077 25.5 9.23077C26.7703 9.23077 27.8 10.264 27.8 11.5385V48.4615C27.8 49.7354 26.7696 50.7692 25.5 50.7692Z" fill="#fff"/>
</svg>
