<?xml version="1.0" encoding="UTF-8"?>
<svg id="Ebene_2" data-name="Ebene 2" xmlns="http://www.w3.org/2000/svg" viewBox="0 0 39.9 17.5">
  <defs>
    <style>
      .cls-1 {
        fill: #aa96da;
        stroke-width: 0px;
      }
    </style>
  </defs>
  <g id="Ebene_1-2" data-name="Ebene 1">
    <path class="cls-1" d="M.95,0C.43,0,0,.43,0,.95v14.48h0c0,1.14.92,2.06,2.06,2.06h30.69c4.65,0,7.15-2.97,7.15-7.75v-2c0-4.77-2.5-7.75-7.15-7.75H.95ZM2.2,15.44V2.06h.37l3.49,13.38h-3.86ZM9.11,15.44h-.77L4.93,2.79c-.1-.37.18-.73.56-.73h6.56c.33,0,.58.32.49.64l-3.43,12.74ZM15.25,15.44h-3.86l3.49-13.38h.37v13.38ZM25.27,2.06l-2.95,4.96-2.95-4.96h5.9ZM17.45,2.96l3.55,5.77-3.55,5.62V2.96ZM19.25,15.44l3.07-4.94,3.07,4.94h-6.14ZM23.85,8.57l3.35-5.55v11.14l-3.35-5.59ZM37.65,9.75c0,3.27-1.27,5.62-4.9,5.62h-3.35V2.12h3.35c3.62,0,4.9,2.35,4.9,5.62v2Z"/>
  </g>
</svg>