<svg id="Orion_menu-hamburger_1_" data-name="Orion_menu-hamburger (1)" xmlns="http://www.w3.org/2000/svg" width="43" height="34" viewBox="0 0 43 34">
  <path id="Shape" d="M2.867,20a2.857,2.857,0,1,1,0-5.714H40.134a2.857,2.857,0,1,1,0,5.714Zm0-14.286A2.857,2.857,0,1,1,2.867,0H40.134a2.857,2.857,0,1,1,0,5.714Z" fill="#202020"/>
  <path id="Path" d="M43,3a2.936,2.936,0,0,1-2.867,3H2.867A2.936,2.936,0,0,1,0,3,2.936,2.936,0,0,1,2.867,0H40.133A2.936,2.936,0,0,1,43,3Z" transform="translate(0 28)" fill="#202020"/>
</svg>
