<?xml version="1.0" encoding="UTF-8"?>
<svg width="636px" height="529px" viewBox="0 0 636 529" version="1.1" xmlns="http://www.w3.org/2000/svg" xmlns:xlink="http://www.w3.org/1999/xlink">
    <title>Group 11</title>
    <defs>
        <path d="M421.736069,0 C432.148763,0 440.613396,8.41345794 440.613396,18.8753007 L440.613396,347.264063 C440.613396,348.07462 440.563124,348.878894 440.456294,349.639184 C440.399738,350.229822 440.292909,350.820461 440.129523,351.360832 C440.079251,351.737836 439.966138,352.064572 439.859308,352.441575 C439.752479,352.981947 439.589094,353.465768 439.375436,353.949589 C439.161777,354.48996 438.941835,355.030332 438.67162,355.570703 C437.326831,358.373095 435.328499,360.691665 432.846294,362.469864 C432.46925,362.7966 432.092206,363.066786 431.66489,363.280421 C431.231289,363.550607 430.797689,363.820793 430.370373,364.034428 C428.321768,365.115171 426.053221,365.818911 423.677845,366.032546 C423.030586,366.082813 422.383328,366.139363 421.736069,366.139363 L18.8773267,366.139363 C8.47091759,366.139363 0,357.675638 0,347.264063 L0,231.580587 C0.75408762,230.876847 1.5144593,230.179391 2.26854692,229.532202 C5.39172648,226.61671 8.74113232,223.977686 12.1910832,221.439197 C15.4839325,219.013809 18.9338833,216.751789 22.5472198,214.646853 C22.8677071,214.426935 23.1944784,214.2133 23.5149656,214.049931 C23.5149656,213.999664 23.5715222,213.999664 23.5715222,213.999664 C38.7852399,204.939017 55.8276201,198.573944 72.9265569,194.904445 C100.603929,189.041258 128.912162,188.717761 157.286673,188.707514 L168.638673,188.707733 C181.883675,188.698573 195.126717,188.605871 208.310421,187.898466 C220.067904,187.301544 232.039045,186.007166 243.853084,183.851964 C266.130089,179.862012 287.759836,172.742932 306.203562,160.986711 C313.757006,156.186202 320.713465,150.631686 327.022664,144.103245 C328.537124,142.595231 329.881913,141.137485 331.232987,139.572921 C341.532567,127.8167 348.979182,113.848726 355.124996,99.4471985 C355.124996,99.3969314 355.181553,99.3969314 355.181553,99.3403809 C355.231825,99.2335633 355.231825,99.1770128 355.288382,99.0701952 C357.066772,94.8666079 358.738333,90.4933691 360.359621,86.1829642 C363.972958,76.3620271 366.882479,66.3902887 369.257855,56.2488988 C369.308128,56.0352636 369.364684,55.8153449 369.421241,55.6017097 C370.822587,49.61364 372.060547,43.4684855 373.034577,37.3170476 C373.355064,35.2686627 373.625279,33.2768284 373.895494,31.2221602 C374.165709,29.6073292 374.379367,28.0427653 374.542752,26.421651 C374.756411,24.6434519 374.812967,22.6516175 374.812967,20.4901317 C374.919796,14.4517948 374.379367,7.22589741 374.272538,0" id="path-1"></path>
        <path d="M9.68406953,0 C10.0988177,0.0879674467 10.4884297,0.207351839 10.8654735,0.351869787 C16.8918904,2.43795495 21.9128571,6.57870834 27.3234358,9.93403809 C33.9342706,14.0370911 41.3494655,16.9400169 48.9971708,18.4291801 C55.3754952,19.6858579 61.9109212,19.9309101 68.2955298,19.0700858 C71.5129703,18.6490987 74.6989905,17.9390757 77.7970338,16.9148833 C77.8473063,16.9023165 77.9038628,16.877183 77.9541353,16.8708996 C79.4190204,16.3849842 80.8705615,15.8348386 82.3178614,15.2636966 L86.656141,13.5305155 C90.2759426,12.1057635 93.9261301,10.8199959 97.7489354,10.3487418 C98.1573995,10.3173248 98.5972839,10.2670577 99.0308843,10.2356408 C106.464931,9.70783609 113.735593,12.6107618 120.358996,16.085476 C126.2723,19.1957536 133.436132,23.191989 138.193168,28.4072019 L125.348542,69.1738301 C124.29282,72.5291598 120.717187,74.3953264 117.361498,73.3334336 L4.46201276,37.7820184 C1.10003879,36.7201256 -0.760044004,33.1511606 0.295678663,29.7895475" id="path-3"></path>
    </defs>
    <g id="Page-1" stroke="none" stroke-width="1" fill="none" fill-rule="evenodd">
        <g id="Extra-Large" transform="translate(-1062, -1085)">
            <g id="Group-11" transform="translate(1062.8744, 1085.8551)">
                <circle id="Oval-Copy-35" fill="#333F72" cx="55.1255767" cy="381.144937" r="16"></circle>
                <g id="Group" transform="translate(21.8923, 86.7142)">
                    <path d="M535.238523,19.5224898 L535.238523,346.616874 C535.238523,353.252133 532.058787,359.133385 527.150934,362.633232 C524.071743,364.844985 520.408134,366.139363 516.361197,366.139363 L113.445898,366.139363 C103.039488,366.139363 94.5685708,357.405453 94.5685708,346.616874 L94.5685708,19.5224898 C94.5685708,12.9437814 97.6980344,7.16934691 102.499059,3.66949921 C105.571966,1.34464526 109.405245,0 113.445898,0 L516.361197,0 C526.824162,0 535.238523,8.73391078 535.238523,19.5224898" id="Fill-57" fill="#10E2E4"></path>
                    <path d="M522.994026,22.5422866 L522.994026,350.931049 C522.994026,351.741606 522.937469,352.552163 522.83064,353.30617 C522.780368,353.896808 522.673539,354.49373 522.510153,355.034102 C522.453596,355.411105 522.346767,355.731558 522.239938,356.108561 C522.133109,356.648933 521.969723,357.132754 521.756065,357.616575 C521.536123,358.156946 521.322465,358.697317 521.05225,359.237689 C519.701176,362.04008 517.709128,364.358651 515.226923,366.143133 C514.849879,366.463586 514.472836,366.733772 514.039235,366.947407 C513.611919,367.217593 513.178319,367.487779 512.744718,367.707697 C510.696113,368.782157 508.433851,369.485896 506.058475,369.699532 C505.411216,369.756082 504.763958,369.806349 504.116699,369.806349 L101.257956,369.806349 C90.8452632,369.806349 82.3806297,361.342624 82.3806297,350.931049 L82.3806297,22.5422866 C82.3806297,12.0804438 90.8452632,3.66698585 101.257956,3.66698585 L504.116699,3.66698585 C514.523108,3.66698585 522.994026,12.0804438 522.994026,22.5422866" id="Fill-59" fill="#F0EFF4"></path>
                    <polygon id="Fill-61" fill="#10E2E4" points="82.378116 59.924053 523.00408 59.924053 523.00408 34.9098812 82.378116 34.9098812"></polygon>
                    <path d="M162.416348,130.252142 L113.369232,130.252142 C109.246886,130.252142 105.903765,126.909379 105.903765,122.781192 L105.903765,97.2831993 C105.903765,93.1550127 109.246886,89.8122498 113.369232,89.8122498 L162.416348,89.8122498 C166.538693,89.8122498 169.888099,93.1550127 169.888099,97.2831993 L169.888099,122.781192 C169.888099,126.909379 166.538693,130.252142 162.416348,130.252142" id="Fill-63" fill="#6C38B8"></path>
                    <path d="M276.03033,103.393795 L185.822599,103.393795 C184.440105,103.393795 183.315258,102.269069 183.315258,100.886723 L183.315258,92.3224637 C183.315258,90.9338347 184.440105,89.8153914 185.822599,89.8153914 L276.03033,89.8153914 C277.412824,89.8153914 278.537672,90.9338347 278.537672,92.3224637 L278.537672,100.886723 C278.537672,102.269069 277.412824,103.393795 276.03033,103.393795" id="Fill-64" fill="#6C38B8"></path>
                    <path d="M418.637097,103.393795 L390.754707,103.393795 C389.372213,103.393795 388.247366,102.269069 388.247366,100.886723 L388.247366,92.3224637 C388.247366,90.9338347 389.372213,89.8153914 390.754707,89.8153914 L418.637097,89.8153914 C420.019591,89.8153914 421.144438,90.9338347 421.144438,92.3224637 L421.144438,100.886723 C421.144438,102.269069 420.019591,103.393795 418.637097,103.393795" id="Fill-66" fill="#6C38B8"></path>
                    <path d="M463.305477,103.393795 L435.423087,103.393795 C434.040593,103.393795 432.915746,102.269069 432.915746,100.886723 L432.915746,92.3224637 C432.915746,90.9338347 434.040593,89.8153914 435.423087,89.8153914 L463.305477,89.8153914 C464.687971,89.8153914 465.812818,90.9338347 465.812818,92.3224637 L465.812818,100.886723 C465.812818,102.269069 464.687971,103.393795 463.305477,103.393795" id="Fill-67" fill="#6C38B8"></path>
                    <path d="M507.973857,103.393795 L480.091467,103.393795 C478.708973,103.393795 477.584126,102.269069 477.584126,100.886723 L477.584126,92.3224637 C477.584126,90.9338347 478.708973,89.8153914 480.091467,89.8153914 L507.973857,89.8153914 C509.356351,89.8153914 510.481199,90.9338347 510.481199,92.3224637 L510.481199,100.886723 C510.481199,102.269069 509.356351,103.393795 507.973857,103.393795" id="Fill-68" fill="#6C38B8"></path>
                    <path d="M490.986148,260.017949 L113.477318,260.017949 C109.292132,260.017949 105.905021,256.624919 105.905021,252.446465 L105.905021,155.330404 C105.905021,151.145667 109.292132,147.752637 113.477318,147.752637 L490.986148,147.752637 C495.171335,147.752637 498.558445,151.145667 498.558445,155.330404 L498.558445,252.446465 C498.558445,256.624919 495.171335,260.017949 490.986148,260.017949" id="Fill-69" fill="#6C38B8"></path>
                    <path d="M209.590812,341.096288 L114.399818,341.096288 C110.214632,341.096288 106.827522,337.703258 106.827522,333.524804 L106.827522,281.473209 C106.827522,277.288472 110.214632,273.901726 114.399818,273.901726 L209.590812,273.901726 C213.775999,273.901726 217.163109,277.288472 217.163109,281.473209 L217.163109,333.524804 C217.163109,337.703258 213.775999,341.096288 209.590812,341.096288" id="Fill-70" fill="#6C38B8"></path>
                    <path d="M349.932802,341.096288 L254.741808,341.096288 C250.556622,341.096288 247.169512,337.703258 247.169512,333.524804 L247.169512,281.473209 C247.169512,277.288472 250.556622,273.901726 254.741808,273.901726 L349.932802,273.901726 C354.117989,273.901726 357.505099,277.288472 357.505099,281.473209 L357.505099,333.524804 C357.505099,337.703258 354.117989,341.096288 349.932802,341.096288" id="Fill-71" fill="#6C38B8"></path>
                    <path d="M490.986148,341.096288 L395.795154,341.096288 C391.609968,341.096288 388.222858,337.703258 388.222858,333.524804 L388.222858,281.473209 C388.222858,277.288472 391.609968,273.901726 395.795154,273.901726 L490.986148,273.901726 C495.171335,273.901726 498.558445,277.288472 498.558445,281.473209 L498.558445,333.524804 C498.558445,337.703258 495.171335,341.096288 490.986148,341.096288" id="Fill-72" fill="#6C38B8"></path>
                    <path d="M464.560405,243.118146 L333.971281,243.118146 C329.691834,243.118146 326.223031,239.649715 326.223031,235.377011 L326.223031,172.398602 C326.223031,168.119614 329.691834,164.657467 333.971281,164.657467 L464.560405,164.657467 C468.833568,164.657467 472.302371,168.119614 472.302371,172.398602 L472.302371,235.377011 C472.302371,239.649715 468.833568,243.118146 464.560405,243.118146" id="Fill-73" fill="#FFFFFF"></path>
                    <path d="M170.339923,243.118146 L137.442851,243.118146 C136.022652,243.118146 134.872669,241.968286 134.872669,240.554523 L134.872669,231.801762 C134.872669,230.381716 136.022652,229.238139 137.442851,229.238139 L170.339923,229.238139 C171.753838,229.238139 172.903821,230.381716 172.903821,231.801762 L172.903821,240.554523 C172.903821,241.968286 171.753838,243.118146 170.339923,243.118146" id="Fill-74" fill="#FFFFFF"></path>
                    <path d="M233.614787,243.118146 L200.717715,243.118146 C199.297516,243.118146 198.147533,241.968286 198.147533,240.554523 L198.147533,231.801762 C198.147533,230.381716 199.297516,229.238139 200.717715,229.238139 L233.614787,229.238139 C235.028701,229.238139 236.178685,230.381716 236.178685,231.801762 L236.178685,240.554523 C236.178685,241.968286 235.028701,243.118146 233.614787,243.118146" id="Fill-75" fill="#10E2E4"></path>
                    <path d="M512.193606,37.9730334 L512.193606,45.4628331 C512.193606,53.0657339 505.984951,59.2674389 498.280689,59.2674389 L292.345644,59.2674389 C284.748212,59.2674389 278.539557,53.0657339 278.539557,45.4628331 L278.539557,37.9730334 C278.539557,30.376416 284.748212,24.1684276 292.345644,24.1684276 L498.280689,24.1684276 C505.984951,24.1684276 512.193606,30.376416 512.193606,37.9730334" id="Fill-76" fill="#6C38B8"></path>
                    <path d="M490.20064,40.5020975 C487.98865,41.9032932 485.129401,41.3126547 483.671498,39.1511688 C482.810582,37.8567907 482.703753,36.2419597 483.294455,34.8910311 C483.564669,34.0302068 484.161655,33.2196496 485.022572,32.6792781 C487.234562,31.2278152 490.093811,31.8184538 491.495157,34.0302068 C491.658543,34.3003925 491.815645,34.5705782 491.872201,34.8910311 C492.789675,36.8891488 492.085859,39.2077193 490.20064,40.5020975 L490.20064,40.5020975 Z M494.354406,44.6554177 L494.140748,44.2784143 L492.356074,41.5828404 C494.191021,39.8549084 494.894836,37.2661521 494.29785,34.8910311 C494.140748,34.1935749 493.813977,33.4898353 493.380377,32.7923791 C491.331772,29.6067009 487.020904,28.6893261 483.834884,30.7942614 C482.326709,31.8184538 481.302406,33.2762001 480.925363,34.8910311 C480.491762,36.7257807 480.761977,38.6673479 481.842836,40.3387294 C483.671498,43.1474043 487.284835,44.1715967 490.307469,42.9274857 L492.035587,45.6230596 L492.249245,45.9497958 L494.461235,49.2925588 L496.50984,47.891363 L494.354406,44.6554177 Z" id="Fill-77" fill="#FFFFFF"></path>
                    <path d="M494.194791,44.2413423 L492.007937,45.673955 C491.781711,45.8247564 491.712586,46.1326424 491.863404,46.3588444 L496.88437,54.0182957 C497.035188,54.2507811 497.343107,54.313615 497.569333,54.1628136 L499.756187,52.7302009 C499.982414,52.5793996 500.051538,52.2715135 499.900721,52.0453115 L494.879754,44.3858603 C494.728937,44.1533749 494.421017,44.090541 494.194791,44.2413423" id="Fill-78" fill="#FFFFFF"></path>
                    <g id="Group-84" transform="translate(82.3781, 3.6689)">
                        <mask id="mask-2" fill="white">
                            <use xlink:href="#path-1"></use>
                        </mask>
                        <g id="Clip-83"></g>
                    </g>
                    <path d="M16.1403164,121.98383 C16.1403164,121.98383 13.1805225,116.630383 9.51691344,116.01461 C4.92326302,115.248037 0.738076733,115.310871 0.147374765,117.918477 C-0.449611267,120.526084 8.0778629,120.475817 7.49972905,121.606827 C6.92159521,122.737837 5.04894429,121.688511 4.81643394,122.951472 C4.58392359,124.214433 9.89395725,125.628196 9.89395725,125.628196 L16.1403164,121.98383 Z" id="Fill-117" fill="#FBD783"></path>
                    <path d="M141.488531,103.500613 L125.351056,154.729084 C124.295333,158.090697 120.719701,159.95058 117.357727,158.894971 L4.46452639,123.343555 C1.10255242,122.281663 -0.757530379,118.706414 0.298192289,115.351085 L16.4356673,64.1163302 C17.49139,60.7610005 21.0670221,58.8948339 24.4289961,59.9567267 L137.322197,95.5081419 C140.684171,96.5700347 142.544254,100.139 141.488531,103.500613" id="Fill-118" fill="#6C38B8"></path>
                    <polygon id="Fill-119" fill="#FFFFFF" points="25.1724008 93.7776966 59.6907616 88.6818681 57.8998035 94.3620518 30.6646723 97.9373001 30.6269679 98.0629679 50.8805046 116.6618 49.1083987 122.285433 23.7396343 98.3268703"></polygon>
                    <polygon id="Fill-120" fill="#FFFFFF" points="52.7003694 126.189931 82.5371029 85.253651 87.9665337 86.9627328 58.1298002 127.899012"></polygon>
                    <polygon id="Fill-121" fill="#FFFFFF" points="112.625199 126.457603 78.1445425 131.427764 79.9166484 125.804131 107.547676 122.291716 107.591664 122.166048 86.9610836 103.447832 88.7331895 97.8241991 114.139658 121.657094"></polygon>
                    <g id="Group-124" transform="translate(0, 85.5603)">
                        <mask id="mask-4" fill="white">
                            <use xlink:href="#path-3"></use>
                        </mask>
                        <g id="Clip-123"></g>
                    </g>
                    <path d="M310.913167,89.2109294 C310.913167,89.2109294 300.789541,97.0902993 300.267963,99.9241078 C299.75267,102.757916 309.599798,101.834258 311.686107,100.363945 C313.766132,98.8936319 312.968056,97.3542016 318.994472,95.3560839 C325.020889,93.3579662 326.42852,98.9187655 326.42852,98.9187655 C327.044358,99.1072672 327.961831,98.7616808 328.401716,98.0202409 C328.401716,98.0202409 326.698734,94.6083606 328.232046,91.8939365 C329.759073,89.1857959 327.63506,84.8251239 325.611591,84.8314005 C323.581839,84.8314005 320.772862,90.3230893 317.73766,89.430848 C314.702457,88.5448902 313.118873,87.4264469 310.913167,89.2109294" id="Fill-142" fill="#FAF1F3"></path>
                    <path d="M354.681669,100.745347 C354.681669,100.745347 346.380421,110.528583 346.449546,113.406376 C346.524955,116.284168 355.976186,113.368675 357.716872,111.508792 C359.457557,109.642626 358.351562,108.29798 363.843834,105.106019 C369.336105,101.92034 371.849731,107.079003 371.849731,107.079003 C372.496989,107.141837 373.326485,106.614032 373.5967,105.797192 C373.5967,105.797192 371.233892,102.800015 372.182786,99.8342553 C373.125395,96.8684957 370.159317,93.0356283 368.173553,93.4566154 C366.187789,93.8713191 364.560217,99.8154051 361.405617,99.5640696 C358.257301,99.3190174 356.478911,98.5461605 354.681669,100.745347" id="Fill-144" fill="#FAF1F3"></path>
                </g>
                <circle id="Oval-Copy-32" fill="#5931FE" transform="translate(616.9795, 164.502) rotate(123) translate(-616.9795, -164.502)" cx="616.979472" cy="164.501979" r="12.5"></circle>
                <circle id="Oval-Copy-36" fill="#5931FE" transform="translate(106.9795, 510.502) rotate(123) translate(-106.9795, -510.502)" cx="106.979472" cy="510.501979" r="12.5"></circle>
                <circle id="Oval-Copy-33" fill="#35FEAF" transform="translate(473.2914, 45.5321) rotate(123) translate(-473.2914, -45.5321)" cx="473.29137" cy="45.5320513" r="12.5"></circle>
                <circle id="Oval-Copy-37" fill="#35FEAF" transform="translate(17.2914, 471.5321) rotate(123) translate(-17.2914, -471.5321)" cx="17.29137" cy="471.532051" r="12.5"></circle>
                <circle id="Oval-Copy-34" fill="#F34C1A" transform="translate(604.3273, 28.3578) rotate(123) translate(-604.3273, -28.3578)" cx="604.327322" cy="28.3578469" r="20.5"></circle>
            </g>
        </g>
    </g>
</svg>